PathFileType	4	(X/Y/Z)	 s06c0302.trc
DataRate	CameraRate	NumFrames	NumMarkers	Units	OrigDataRate	OrigDataStartFrame	OrigNumFrames
200	200	5	48	mm	200	501	2000
Frame#	Time	racr			lacr			c7			jug			rlel			rdr			llel			ldr			s2			lic			ric			lasi			rasi			rpsi			lpsi			rgt			lgt			rth1			rth2			rth3			rth4			rlfc			rmfc			rsh1			rsh2			rsh3			rsh4			rlmal			rcal			rtoe			rmt5			lth1			lth2			lth4			lth3			llfc			lmfc			llmal			lcal			lmt5			lsh1			lsh2			lsh3			lsh4			ltoe			SBIKE			LBIKE			RBIKE			
		X1	Y1	Z1	X2	Y2	Z2	X3	Y3	Z3	X4	Y4	Z4	X5	Y5	Z5	X6	Y6	Z6	X7	Y7	Z7	X8	Y8	Z8	X9	Y9	Z9	X10	Y10	Z10	X11	Y11	Z11	X12	Y12	Z12	X13	Y13	Z13	X14	Y14	Z14	X15	Y15	Z15	X16	Y16	Z16	X17	Y17	Z17	X18	Y18	Z18	X19	Y19	Z19	X20	Y20	Z20	X21	Y21	Z21	X22	Y22	Z22	X23	Y23	Z23	X24	Y24	Z24	X25	Y25	Z25	X26	Y26	Z26	X27	Y27	Z27	X28	Y28	Z28	X29	Y29	Z29	X30	Y30	Z30	X31	Y31	Z31	X32	Y32	Z32	X33	Y33	Z33	X34	Y34	Z34	X35	Y35	Z35	X36	Y36	Z36	X37	Y37	Z37	X38	Y38	Z38	X39	Y39	Z39	X40	Y40	Z40	X41	Y41	Z41	X42	Y42	Z42	X43	Y43	Z43	X44	Y44	Z44	X45	Y45	Z45	X46	Y46	Z46	X47	Y47	Z47	X48	Y48	Z48	
501	2.5050	657.941421	1290.251683	-54.725746	647.713575	1289.293062	-364.928797	661.696102	1362.595063	-214.474459	634.752489	1200.712351	-211.333436	535.954350	1056.204844	44.848586	715.292469	932.423718	-39.985334	542.298560	1061.669638	-486.602353	714.867213	925.119707	-411.925500	108.086349	1175.568477	-252.620634	281.758444	1142.594048	-400.710841	239.440905	1115.448928	-75.706985	288.905308	1084.386943	-367.567937	264.853927	1071.344742	-114.568322	141.522205	1206.733730	-214.216262	144.685506	1212.083466	-273.542935	194.488113	1039.939295	-56.496702	250.646115	1084.570698	-440.884834	239.223328	919.873204	-23.894213	283.410148	840.399056	-16.959657	283.352163	753.730953	-25.009650	319.216285	850.866222	-25.556373	304.204342	648.707117	-34.233098	311.025365	622.080998	-142.220133	278.209195	526.452009	-13.503851	284.062201	440.798450	-32.549932	247.799762	362.611757	-42.237548	311.362245	440.873036	-63.274685	227.664540	283.892513	-52.712306	164.477934	273.284279	-102.798682	422.282627	171.260481	-93.183506	321.678406	183.525865	-25.849626	312.851086	988.881758	-452.043797	390.204107	949.818202	-443.465048	412.468461	975.534937	-428.620720	439.695695	875.456889	-440.675041	470.688072	773.968868	-414.988246	467.439700	763.319820	-299.120950	150.918450	592.302282	-380.306935	86.942141	632.931330	-332.671553	157.574562	444.914880	-394.405909	387.710897	703.951518	-427.699127	325.393911	650.066260	-398.706043	239.769993	626.766278	-393.744369	341.196973	636.130636	-365.837413	207.839909	376.901913	-332.854753	-203.066330	867.846415	-201.351880	-51.133191	83.837360	-409.836131	-49.482014	80.079266	-12.481705	
502	2.5100	659.035222	1290.729496	-56.279719	647.527517	1290.846263	-366.177499	661.689409	1363.307552	-215.857848	635.763973	1201.171098	-212.716012	537.325803	1056.660248	44.924844	716.855677	930.980586	-40.453701	543.297378	1062.304343	-486.977451	715.388722	925.122890	-411.855182	108.955937	1173.682538	-250.818946	281.696521	1142.864749	-399.960507	241.650840	1112.104359	-74.965628	289.833099	1084.545541	-366.852277	266.590195	1068.103061	-114.272941	142.027902	1204.255698	-212.040541	144.547114	1210.621195	-271.215371	195.304444	1036.159047	-56.520571	251.801522	1085.604198	-439.880868	238.440818	916.189752	-23.602328	281.904470	835.911039	-16.701269	280.500975	749.376389	-25.320490	317.253913	846.048665	-25.113491	300.200412	644.304924	-34.259451	307.558803	617.553312	-141.784864	274.082737	522.257321	-13.382169	279.561160	436.574684	-32.258275	242.959917	358.443082	-41.842856	306.312357	436.549727	-63.157528	222.640698	279.929975	-52.320132	159.320504	270.587460	-102.284929	415.489191	164.056995	-93.411129	315.113707	178.043415	-25.833573	315.255550	991.452255	-452.560152	393.302895	953.795839	-444.670086	415.170231	979.736456	-429.452521	444.196181	880.179281	-442.409740	475.846047	779.243830	-416.904303	473.154075	768.174764	-301.159013	155.701728	597.793645	-380.844861	91.135082	637.448839	-332.855330	165.079941	450.919250	-394.726296	392.680422	709.612755	-429.288766	330.514833	656.100473	-400.286872	244.673491	632.899457	-394.796212	345.720378	641.106096	-367.344767	216.387483	383.616077	-332.965579	-202.968028	867.965014	-201.436604	-51.065329	83.775527	-409.878315	-49.471084	80.063972	-12.488380	
503	2.5150	660.070949	1291.245939	-57.825076	647.467936	1292.323962	-367.397406	661.728018	1364.074762	-217.147059	636.712003	1201.457280	-213.976101	538.913806	1057.223394	44.968811	717.826982	929.885226	-40.836174	544.324543	1063.184571	-487.715849	716.067449	925.380750	-412.065469	110.223008	1171.470033	-249.351433	281.642330	1143.333108	-399.184611	243.951407	1109.217544	-74.034778	290.557795	1084.874949	-365.802847	268.891647	1065.353226	-113.519276	143.364792	1201.539087	-210.497911	146.360770	1208.096168	-270.931342	196.185124	1032.625484	-56.648572	252.852134	1086.899200	-438.756627	237.623595	912.766501	-23.504315	279.855851	831.957954	-16.645207	277.409042	745.446639	-25.322154	315.317078	841.511313	-24.822392	296.284359	640.509759	-34.173564	303.792766	613.630083	-141.465188	269.745957	518.337946	-13.330216	274.920543	432.460358	-32.088959	238.031213	354.616005	-41.508341	301.510569	432.552877	-63.122249	217.246368	276.285214	-51.959198	153.890680	267.922182	-101.880679	408.340123	157.349949	-93.531379	308.305960	172.866413	-25.822605	317.364859	994.306145	-453.148551	396.204299	957.973487	-445.685041	417.670728	984.063845	-430.138635	448.196189	885.172473	-444.441164	480.762830	784.684980	-418.685902	478.713189	773.303458	-302.923872	160.808072	602.869195	-381.258906	95.388982	641.586699	-332.979915	172.640564	456.434847	-394.979855	397.583805	715.301399	-430.731158	335.425353	661.933415	-401.526948	249.595079	638.747268	-395.797017	351.239686	647.028861	-369.152074	224.938196	390.011759	-333.144262	-202.887187	867.841395	-201.575810	-51.011436	83.709297	-409.893169	-49.424517	80.042706	-12.530879	
504	2.5200	661.057693	1291.754165	-59.393535	647.526071	1293.685639	-368.750948	661.854589	1364.854049	-218.511055	637.752413	1202.042705	-215.486616	540.664011	1057.813897	45.023294	717.988455	929.380721	-40.759558	545.436042	1063.936077	-488.512080	716.476435	925.652171	-412.246522	111.653511	1170.670196	-247.509243	281.518406	1144.026506	-398.372359	246.394876	1106.626762	-73.055435	291.297237	1085.525512	-364.793229	270.888135	1063.049534	-113.158019	143.984816	1200.490649	-207.889762	146.584501	1207.121528	-268.815411	197.176717	1029.557991	-56.791424	253.691297	1088.513877	-437.411351	236.553942	909.843531	-23.645269	277.749275	828.344531	-16.731930	273.823761	741.881639	-25.642824	313.358217	837.279362	-24.936694	291.684464	636.830886	-34.353304	299.525536	609.983450	-141.315024	265.103036	514.702781	-13.177203	269.958549	428.930392	-31.987704	232.814623	351.195370	-41.310012	295.930263	428.868808	-62.898091	211.555582	273.040574	-51.618673	148.079942	265.932900	-101.545544	400.863704	151.206149	-93.558328	301.122991	168.238279	-25.796165	319.178879	997.496736	-453.732439	398.714416	962.370230	-446.655096	419.618129	988.520513	-430.740170	451.701450	890.352126	-446.650587	485.392449	790.210453	-420.276252	484.071516	778.644262	-304.412483	166.095498	607.438033	-381.505853	99.854094	645.256093	-332.835662	180.216127	461.463822	-394.949015	402.397642	721.034066	-431.948215	340.329507	667.557632	-402.672375	254.540293	644.366742	-396.677635	356.225573	652.325171	-370.520779	233.809440	396.039271	-333.195631	-202.885913	867.796832	-201.575895	-50.959045	83.714288	-409.899451	-49.383081	80.022981	-12.528456	
505	2.5250	661.956337	1292.460451	-60.879812	647.876064	1295.247765	-371.187376	662.081879	1365.633454	-219.832435	638.835493	1202.598651	-217.056214	542.618738	1058.606634	45.032111	718.142209	928.821623	-40.830633	546.297227	1064.664804	-489.299778	716.778683	926.061166	-412.495371	111.560195	1168.739637	-244.838432	281.450952	1144.704012	-397.377296	248.838644	1104.611798	-71.926387	291.982057	1086.474250	-363.732842	272.839516	1061.190995	-112.518491	144.408328	1199.545634	-205.332263	146.989835	1206.391782	-266.437222	197.905881	1027.050583	-56.565434	254.272787	1090.501440	-436.014150	235.880753	907.343433	-23.444461	275.399987	825.191163	-16.932932	270.349929	738.694295	-26.036778	311.317609	833.692920	-25.127145	286.643153	633.606445	-34.685784	294.613076	606.462367	-141.508500	259.898848	511.724502	-13.246108	264.485229	425.927716	-32.021242	227.167819	348.113702	-41.179154	290.266800	425.358501	-63.367993	205.546745	270.383610	-51.442052	142.204747	264.335413	-101.121476	393.149012	145.333917	-93.606647	293.664608	164.032436	-25.730756	320.603066	1000.876302	-454.309034	400.593605	966.852304	-447.508915	421.166411	993.049832	-431.050974	454.614706	895.463083	-448.444824	489.738622	795.812369	-421.670900	489.158952	784.122343	-305.738660	171.447757	611.709066	-381.613250	104.379846	648.379776	-332.773973	188.080753	466.303278	-395.043010	407.208413	727.253753	-433.666247	345.198964	672.998117	-403.651754	259.456990	649.798010	-397.460484	361.316261	657.953438	-371.548044	243.585472	402.550709	-333.877717	-202.916776	867.794753	-201.478168	-50.951521	83.727601	-409.856419	-49.329177	80.015192	-12.512138	
